<svg xmlns="http://www.w3.org/2000/svg" width="1100" height="520" viewBox="0 0 1100 520"><defs><style>.h{font:700 30px 'Segoe UI','Malgun Gothic',sans-serif;fill:#17324d}.t{font:500 18px 'Segoe UI','Malgun Gothic',sans-serif;fill:#5a6b7d}.b{font:700 19px 'Segoe UI','Malgun Gothic',sans-serif;fill:#263c55}.s{font:500 15px 'Segoe UI','Malgun Gothic',sans-serif;fill:#6b7a8b}.m{font:500 16px 'Segoe UI','Malgun Gothic',sans-serif;fill:#29384a}.card{fill:#fff;stroke:#dce8f5;stroke-width:2}.blue{fill:#eaf4ff}.orange{fill:#fff3df}.green{fill:#e9f8f1}</style><filter id="sh"><feDropShadow dx="0" dy="14" stdDeviation="14" flood-color="#6a95c8" flood-opacity=".16"/></filter></defs><rect width="1100" height="520" rx="28" fill="#f4f9ff"/><text x="56" y="64" class="h">01. ICETALK 메시지에서 필요한 내용 추출, 정리</text><text x="56" y="96" class="t">받은 문장은 그대로 두고, 일정과 할 일로 나누어 확인합니다.</text><g filter="url(#sh)"><rect x="70" y="145" width="430" height="285" rx="24" class="card"/><rect x="70" y="145" width="430" height="54" rx="24" fill="#243b63"/><text x="100" y="181" font-family="Segoe UI,Malgun Gothic" font-weight="700" font-size="18" fill="#fff">ICETALK 메시지</text><text x="105" y="240" class="s">제목  교육과정 협의회 안내</text><rect x="105" y="270" width="330" height="118" rx="14" fill="#eef5ff" stroke="#79aee7" stroke-width="2"/><text x="130" y="310" class="m">안녕하세요.</text><text x="130" y="342" class="m">7월 23일 오후 2시에 협의회가 있습니다.</text><text x="130" y="374" class="m">참석 여부는 7월 20일까지 알려주세요.</text></g><path d="M530 286h95" stroke="#74aee9" stroke-width="7" stroke-linecap="round"/><path d="M625 286l-20-15v30z" fill="#74aee9"/><text x="540" y="258" class="s">AI가 내용을 확인하고 정리합니다</text><g filter="url(#sh)"><rect x="650" y="145" width="380" height="285" rx="24" class="card"/><text x="685" y="198" class="b">정리된 내용</text><rect x="685" y="230" width="300" height="58" rx="14" class="blue"/><text x="710" y="265" class="m">📅 일정  7월 23일(목) 오후 2시</text><rect x="685" y="306" width="300" height="58" rx="14" class="orange"/><text x="710" y="341" class="m">☐ 할 일  7월 20일까지 참석 회신</text><rect x="685" y="382" width="300" height="58" rx="14" class="green"/><text x="710" y="417" class="m">📝 메모  협의회 자료 당일 배부</text></g></svg>