<svg xmlns="http://www.w3.org/2000/svg" width="1100" height="360" viewBox="0 0 1100 360"><defs><filter id="sh"><feDropShadow dx="0" dy="12" stdDeviation="12" flood-color="#5b8fc9" flood-opacity=".14"/></filter><style>.h{font:700 32px 'Segoe UI','Malgun Gothic',sans-serif;fill:#17324d}.b{font:700 28px 'Segoe UI','Malgun Gothic',sans-serif;fill:#25496d}.s{font:700 20px 'Segoe UI','Malgun Gothic',sans-serif;fill:#2f7de1}</style></defs><rect width="1100" height="360" rx="30" fill="#f4f9ff"/><text x="56" y="70" class="h">ICETALK 메시지 정리</text><g filter="url(#sh)"><rect x="80" y="135" width="250" height="120" rx="26" fill="#fff"/><text x="125" y="185" class="b">받은 메시지</text><rect x="122" y="210" width="166" height="28" rx="14" fill="#eaf4ff"/></g><path d="M365 195h120" stroke="#7cb6ef" stroke-width="8" stroke-linecap="round"/><path d="M485 195l-24-17v34z" fill="#7cb6ef"/><g filter="url(#sh)"><rect x="520" y="115" width="230" height="160" rx="30" fill="#fff"/><text x="577" y="180" class="b">AI 확인</text><text x="563" y="225" class="s">내용 분류</text></g><path d="M785 195h120" stroke="#7cb6ef" stroke-width="8" stroke-linecap="round"/><path d="M905 195l-24-17v34z" fill="#7cb6ef"/><g filter="url(#sh)"><rect x="935" y="120" width="105" height="58" rx="18" fill="#eaf4ff"/><rect x="935" y="190" width="105" height="58" rx="18" fill="#fff3df"/><rect x="935" y="260" width="105" height="58" rx="18" fill="#e9f8f1"/><text x="955" y="156" class="s">일정</text><text x="955" y="226" class="s">할 일</text><text x="955" y="296" class="s">메모</text></g></svg>