<svg xmlns="http://www.w3.org/2000/svg" width="1100" height="520" viewBox="0 0 1100 520"><defs><style>.h{font:700 30px 'Segoe UI','Malgun Gothic',sans-serif;fill:#17324d}.t{font:500 18px 'Segoe UI','Malgun Gothic',sans-serif;fill:#5a6b7d}.b{font:700 19px 'Segoe UI','Malgun Gothic',sans-serif;fill:#263c55}.s{font:500 15px 'Segoe UI','Malgun Gothic',sans-serif;fill:#6b7a8b}.m{font:500 16px 'Segoe UI','Malgun Gothic',sans-serif;fill:#29384a}.card{fill:#fff;stroke:#dce8f5;stroke-width:2}</style><filter id="sh"><feDropShadow dx="0" dy="14" stdDeviation="14" flood-color="#6a95c8" flood-opacity=".16"/></filter></defs><rect width="1100" height="520" rx="28" fill="#f7fbff"/><text x="56" y="64" class="h">02. 공문 본문에서 일정과 안내 추출, 정리</text><text x="56" y="96" class="t">긴 공문 안의 일정 · 마감 · 안내에 필요한 내용을 한 화면에서 확인합니다.</text><g filter="url(#sh)"><rect x="70" y="140" width="440" height="300" rx="24" class="card"/><text x="105" y="190" class="b">공문 본문</text><line x1="105" y1="214" x2="455" y2="214" stroke="#e5edf6" stroke-width="2"/><text x="105" y="252" class="m">2026 교원 역량 강화 연수 신청 안내</text><text x="105" y="290" class="m">연수 일시: 7월 24일 14:00</text><text x="105" y="328" class="m">장소: 교육지원청 대회의실</text><text x="105" y="366" class="m">신청 방법: 공문 접수</text><text x="105" y="404" class="m">기한: 7월 19일까지</text></g><path d="M540 290h90" stroke="#74aee9" stroke-width="7" stroke-linecap="round"/><path d="M630 290l-20-15v30z" fill="#74aee9"/><g filter="url(#sh)"><rect x="660" y="140" width="370" height="300" rx="24" class="card"/><text x="695" y="190" class="b">확인할 내용</text><rect x="695" y="222" width="280" height="55" rx="13" fill="#eaf4ff"/><text x="718" y="256" class="m">📅 7월 24일 오후 2시 연수</text><rect x="695" y="296" width="280" height="55" rx="13" fill="#fff3df"/><text x="718" y="330" class="m">☐ 7월 19일까지 공문 접수</text><rect x="695" y="370" width="280" height="55" rx="13" fill="#eef7ff"/><text x="718" y="404" class="m">💬 ICETALK 안내 메시지 초안</text></g></svg>