<svg xmlns="http://www.w3.org/2000/svg" width="1100" height="360" viewBox="0 0 1100 360"><defs><filter id="sh"><feDropShadow dx="0" dy="12" stdDeviation="12" flood-color="#5b8fc9" flood-opacity=".14"/></filter><style>.h{font:700 32px 'Segoe UI','Malgun Gothic',sans-serif;fill:#17324d}.b{font:700 28px 'Segoe UI','Malgun Gothic',sans-serif;fill:#25496d}.s{font:700 20px 'Segoe UI','Malgun Gothic',sans-serif;fill:#2f7de1}</style></defs><rect width="1100" height="360" rx="30" fill="#f7fbff"/><text x="56" y="70" class="h">공문 본문 정리</text><g filter="url(#sh)"><rect x="80" y="120" width="270" height="170" rx="26" fill="#fff"/><text x="128" y="176" class="b">긴 공문</text><line x1="125" y1="210" x2="305" y2="210" stroke="#dbe8f5" stroke-width="6" stroke-linecap="round"/><line x1="125" y1="240" x2="278" y2="240" stroke="#dbe8f5" stroke-width="6" stroke-linecap="round"/></g><path d="M390 205h120" stroke="#7cb6ef" stroke-width="8" stroke-linecap="round"/><path d="M510 205l-24-17v34z" fill="#7cb6ef"/><g filter="url(#sh)"><rect x="550" y="130" width="190" height="150" rx="28" fill="#fff"/><text x="600" y="190" class="b">추출</text><text x="587" y="232" class="s">일정 · 마감</text></g><path d="M780 205h90" stroke="#7cb6ef" stroke-width="8" stroke-linecap="round"/><path d="M870 205l-24-17v34z" fill="#7cb6ef"/><g filter="url(#sh)"><rect x="910" y="116" width="130" height="58" rx="18" fill="#eaf4ff"/><rect x="910" y="190" width="130" height="58" rx="18" fill="#fff3df"/><rect x="910" y="264" width="130" height="58" rx="18" fill="#eef7ff"/><text x="940" y="152" class="s">일정</text><text x="940" y="226" class="s">할 일</text><text x="930" y="300" class="s">안내문</text></g></svg>