<svg xmlns="http://www.w3.org/2000/svg" width="1100" height="360" viewBox="0 0 1100 360"><defs><filter id="sh"><feDropShadow dx="0" dy="12" stdDeviation="12" flood-color="#5b8fc9" flood-opacity=".14"/></filter><style>.h{font:700 32px 'Segoe UI','Malgun Gothic',sans-serif;fill:#17324d}.b{font:700 28px 'Segoe UI','Malgun Gothic',sans-serif;fill:#25496d}.s{font:700 20px 'Segoe UI','Malgun Gothic',sans-serif;fill:#2f7de1}</style></defs><rect width="1100" height="360" rx="30" fill="#f4f9ff"/><text x="56" y="70" class="h">ICETALK 문장 다듬기</text><g filter="url(#sh)"><rect x="90" y="132" width="250" height="145" rx="26" fill="#fff"/><text x="130" y="190" class="b">작성 문장</text><rect x="132" y="220" width="166" height="28" rx="14" fill="#eaf4ff"/></g><path d="M380 205h105" stroke="#7cb6ef" stroke-width="8" stroke-linecap="round"/><path d="M485 205l-24-17v34z" fill="#7cb6ef"/><g filter="url(#sh)"><rect x="525" y="115" width="250" height="170" rx="30" fill="#fff"/><text x="590" y="175" class="b">말투 선택</text><rect x="560" y="215" width="58" height="30" rx="15" fill="#f4f7fb"/><rect x="630" y="215" width="58" height="30" rx="15" fill="#e8f3ff"/><rect x="700" y="215" width="58" height="30" rx="15" fill="#f4f7fb"/></g><path d="M815 205h85" stroke="#7cb6ef" stroke-width="8" stroke-linecap="round"/><path d="M900 205l-24-17v34z" fill="#7cb6ef"/><g filter="url(#sh)"><rect x="930" y="132" width="125" height="145" rx="26" fill="#fff"/><text x="952" y="190" class="b">반영</text><text x="952" y="232" class="s">확인 후</text></g></svg>