<svg xmlns="http://www.w3.org/2000/svg" width="1100" height="520" viewBox="0 0 1100 520"><defs><style>.h{font:700 30px 'Segoe UI','Malgun Gothic',sans-serif;fill:#17324d}.t{font:500 18px 'Segoe UI','Malgun Gothic',sans-serif;fill:#5a6b7d}.b{font:700 19px 'Segoe UI','Malgun Gothic',sans-serif;fill:#263c55}.m{font:500 16px 'Segoe UI','Malgun Gothic',sans-serif;fill:#29384a}.s{font:500 14px 'Segoe UI','Malgun Gothic',sans-serif;fill:#697a8d}.card{fill:#fff;stroke:#dce8f5;stroke-width:2}</style><filter id="sh"><feDropShadow dx="0" dy="14" stdDeviation="14" flood-color="#6a95c8" flood-opacity=".16"/></filter></defs><rect width="1100" height="520" rx="28" fill="#f7fbff"/><text x="56" y="64" class="h">04. 바탕화면과 Google에서 이어서 확인</text><text x="56" y="96" class="t">PC에서는 DeskCal로 바로 보고, 필요한 일정과 할 일은 Google에서도 이어서 확인합니다.</text><g filter="url(#sh)"><rect x="70" y="145" width="300" height="280" rx="24" class="card"/><text x="105" y="194" class="b">🗓️ DeskCal</text><rect x="105" y="225" width="230" height="155" rx="16" fill="#faf7ef" stroke="#eadfc8"/><line x1="105" y1="260" x2="335" y2="260" stroke="#eadfc8"/><line x1="182" y1="225" x2="182" y2="380" stroke="#eadfc8"/><line x1="258" y1="225" x2="258" y2="380" stroke="#eadfc8"/><rect x="116" y="285" width="66" height="56" rx="8" fill="#fff0b8" stroke="#e0bc45"/><text x="124" y="316" class="s">공문 제출</text><text x="105" y="408" class="s">한 날짜의 일정 · 할 일 · 메모를 함께 확인</text></g><path d="M400 286h70" stroke="#74aee9" stroke-width="7" stroke-linecap="round"/><path d="M470 286l-20-15v30z" fill="#74aee9"/><g filter="url(#sh)"><rect x="500" y="145" width="250" height="280" rx="24" class="card"/><text x="535" y="194" class="b">📅 Google Calendar</text><rect x="535" y="240" width="180" height="62" rx="14" fill="#eaf4ff"/><text x="560" y="277" class="m">7월 24일 연수</text><text x="535" y="350" class="s">선택한 캘린더와 연결</text></g><g filter="url(#sh)"><rect x="790" y="145" width="250" height="280" rx="24" class="card"/><text x="825" y="194" class="b">✓ Google Tasks</text><rect x="825" y="240" width="180" height="62" rx="14" fill="#fff3df"/><text x="850" y="277" class="m">공문 접수 확인</text><text x="825" y="350" class="s">선택한 할 일 목록과 연결</text></g></svg>